<svg xmlns="http://www.w3.org/2000/svg" xmlns:xlink="http://www.w3.org/1999/xlink" width="500" zoomAndPan="magnify" viewBox="0 0 375 374.999991" height="500" preserveAspectRatio="xMidYMid meet" version="1.0"><defs><g/></defs><rect x="-37.5" width="450" fill="#ffffff" y="-37.499999" height="449.999989" fill-opacity="1"/><rect x="-37.5" width="450" fill="#000000" y="-37.499999" height="449.999989" fill-opacity="1"/><path stroke-linecap="round" transform="matrix(0.00327881, 0.749993, -0.749993, 0.00327881, 194.247311, 70.816613)" fill="none" stroke-linejoin="miter" d="M 9.997776 9.998552 L 218.739359 9.99966 " stroke="#ffffff" stroke-width="20" stroke-opacity="1" stroke-miterlimit="4"/><path stroke-linecap="round" transform="matrix(0, 0.75, -0.75, 0, 217.411661, 133.241226)" fill="none" stroke-linejoin="miter" d="M 10.001283 10.002006 L 109.496081 10.002006 " stroke="#ffffff" stroke-width="20" stroke-opacity="1" stroke-miterlimit="4"/><g fill="#ffffff" fill-opacity="1"><g transform="translate(13.500004, 252.456413)"><g><path d="M 7.078125 -2.859375 C 7.078125 -1.828125 6.785156 -1.066406 6.203125 -0.578125 C 5.617188 -0.0976562 4.773438 0.140625 3.671875 0.140625 C 2.578125 0.140625 1.738281 -0.0976562 1.15625 -0.578125 C 0.570312 -1.066406 0.28125 -1.828125 0.28125 -2.859375 L 0.28125 -2.953125 L 2.75 -2.953125 L 2.75 -2.859375 C 2.75 -2.484375 2.816406 -2.21875 2.953125 -2.0625 C 3.085938 -1.90625 3.300781 -1.828125 3.59375 -1.828125 C 3.875 -1.828125 4.082031 -1.90625 4.21875 -2.0625 C 4.363281 -2.21875 4.4375 -2.484375 4.4375 -2.859375 L 4.4375 -8.21875 L 7.078125 -8.21875 Z M 7.078125 -2.859375 "/></g></g></g><g fill="#ffffff" fill-opacity="1"><g transform="translate(21.457149, 252.456413)"><g><path d="M 4.96875 -8.359375 C 6.382812 -8.359375 7.476562 -7.992188 8.25 -7.265625 C 9.019531 -6.546875 9.40625 -5.492188 9.40625 -4.109375 C 9.40625 -2.722656 9.019531 -1.664062 8.25 -0.9375 C 7.476562 -0.21875 6.382812 0.140625 4.96875 0.140625 C 3.550781 0.140625 2.457031 -0.21875 1.6875 -0.9375 C 0.914062 -1.65625 0.53125 -2.710938 0.53125 -4.109375 C 0.53125 -5.503906 0.914062 -6.5625 1.6875 -7.28125 C 2.457031 -8 3.550781 -8.359375 4.96875 -8.359375 Z M 4.96875 -6.390625 C 4.40625 -6.390625 3.972656 -6.21875 3.671875 -5.875 C 3.378906 -5.53125 3.234375 -5.066406 3.234375 -4.484375 L 3.234375 -3.71875 C 3.234375 -3.144531 3.378906 -2.6875 3.671875 -2.34375 C 3.972656 -2 4.40625 -1.828125 4.96875 -1.828125 C 5.53125 -1.828125 5.957031 -2 6.25 -2.34375 C 6.550781 -2.6875 6.703125 -3.144531 6.703125 -3.71875 L 6.703125 -4.484375 C 6.703125 -5.066406 6.550781 -5.53125 6.25 -5.875 C 5.957031 -6.21875 5.53125 -6.390625 4.96875 -6.390625 Z M 4.96875 -6.390625 "/></g></g></g><g fill="#ffffff" fill-opacity="1"><g transform="translate(31.394625, 252.456413)"><g><path d="M 6.421875 0 L 6.421875 -3.109375 L 3.515625 -3.109375 L 3.515625 0 L 0.890625 0 L 0.890625 -8.21875 L 3.515625 -8.21875 L 3.515625 -5.21875 L 6.421875 -5.21875 L 6.421875 -8.21875 L 9.0625 -8.21875 L 9.0625 0 Z M 6.421875 0 "/></g></g></g><g fill="#ffffff" fill-opacity="1"><g transform="translate(41.332102, 252.456413)"><g><path d="M 6.75 0 L 3.3125 -3.984375 L 3.3125 0 L 0.890625 0 L 0.890625 -8.21875 L 3.1875 -8.21875 L 6.640625 -4.171875 L 6.640625 -8.21875 L 9.0625 -8.21875 L 9.0625 0 Z M 6.75 0 "/></g></g></g><g fill="#ffffff" fill-opacity="1"><g transform="translate(51.269578, 252.456413)"><g/></g></g><g fill="#ffffff" fill-opacity="1"><g transform="translate(55.242188, 252.456413)"><g><path d="M 7.453125 -1.84375 L 7.453125 0 L 1.25 0 L 1.25 -1.84375 L 3.203125 -1.84375 L 3.203125 -5.546875 L 1.25 -5.546875 L 1.25 -6.9375 C 1.78125 -6.96875 2.375 -7.109375 3.03125 -7.359375 C 3.695312 -7.609375 4.28125 -7.894531 4.78125 -8.21875 L 5.578125 -8.21875 L 5.578125 -1.84375 Z M 7.453125 -1.84375 "/></g></g></g><g fill="#ffffff" fill-opacity="1"><g transform="translate(63.199334, 252.456413)"><g><path d="M 2.953125 -6.1875 L 2.859375 -4.9375 C 2.859375 -4.957031 2.9375 -5.007812 3.09375 -5.09375 C 3.25 -5.1875 3.457031 -5.273438 3.71875 -5.359375 C 3.988281 -5.441406 4.285156 -5.484375 4.609375 -5.484375 C 5.484375 -5.484375 6.175781 -5.234375 6.6875 -4.734375 C 7.207031 -4.234375 7.46875 -3.550781 7.46875 -2.6875 C 7.46875 -2.15625 7.328125 -1.675781 7.046875 -1.25 C 6.765625 -0.820312 6.367188 -0.484375 5.859375 -0.234375 C 5.347656 0.015625 4.757812 0.140625 4.09375 0.140625 C 2.925781 0.140625 2.03125 -0.109375 1.40625 -0.609375 C 0.78125 -1.109375 0.46875 -1.789062 0.46875 -2.65625 L 2.5625 -2.65625 C 2.5625 -2.320312 2.671875 -2.046875 2.890625 -1.828125 C 3.117188 -1.609375 3.4375 -1.5 3.84375 -1.5 C 4.25 -1.5 4.5625 -1.613281 4.78125 -1.84375 C 5 -2.070312 5.109375 -2.363281 5.109375 -2.71875 C 5.109375 -3.082031 5 -3.378906 4.78125 -3.609375 C 4.5625 -3.835938 4.253906 -3.953125 3.859375 -3.953125 C 3.554688 -3.953125 3.328125 -3.898438 3.171875 -3.796875 C 3.015625 -3.703125 2.898438 -3.609375 2.828125 -3.515625 C 2.765625 -3.429688 2.722656 -3.378906 2.703125 -3.359375 L 0.828125 -3.609375 L 1.171875 -8.21875 L 6.859375 -8.21875 L 6.859375 -6.1875 Z M 2.953125 -6.1875 "/></g></g></g><g fill="#ffffff" fill-opacity="1"><g transform="translate(71.156479, 252.456413)"><g><path d="M 0.734375 -3.921875 L 0.734375 -6.296875 L 3.265625 -6.296875 L 3.265625 -3.921875 Z M 0.734375 0 L 0.734375 -2.375 L 3.265625 -2.375 L 3.265625 0 Z M 0.734375 0 "/></g></g></g><g fill="#ffffff" fill-opacity="1"><g transform="translate(75.129089, 252.456413)"><g><path d="M 2.953125 -6.1875 L 2.859375 -4.9375 C 2.859375 -4.957031 2.9375 -5.007812 3.09375 -5.09375 C 3.25 -5.1875 3.457031 -5.273438 3.71875 -5.359375 C 3.988281 -5.441406 4.285156 -5.484375 4.609375 -5.484375 C 5.484375 -5.484375 6.175781 -5.234375 6.6875 -4.734375 C 7.207031 -4.234375 7.46875 -3.550781 7.46875 -2.6875 C 7.46875 -2.15625 7.328125 -1.675781 7.046875 -1.25 C 6.765625 -0.820312 6.367188 -0.484375 5.859375 -0.234375 C 5.347656 0.015625 4.757812 0.140625 4.09375 0.140625 C 2.925781 0.140625 2.03125 -0.109375 1.40625 -0.609375 C 0.78125 -1.109375 0.46875 -1.789062 0.46875 -2.65625 L 2.5625 -2.65625 C 2.5625 -2.320312 2.671875 -2.046875 2.890625 -1.828125 C 3.117188 -1.609375 3.4375 -1.5 3.84375 -1.5 C 4.25 -1.5 4.5625 -1.613281 4.78125 -1.84375 C 5 -2.070312 5.109375 -2.363281 5.109375 -2.71875 C 5.109375 -3.082031 5 -3.378906 4.78125 -3.609375 C 4.5625 -3.835938 4.253906 -3.953125 3.859375 -3.953125 C 3.554688 -3.953125 3.328125 -3.898438 3.171875 -3.796875 C 3.015625 -3.703125 2.898438 -3.609375 2.828125 -3.515625 C 2.765625 -3.429688 2.722656 -3.378906 2.703125 -3.359375 L 0.828125 -3.609375 L 1.171875 -8.21875 L 6.859375 -8.21875 L 6.859375 -6.1875 Z M 2.953125 -6.1875 "/></g></g></g><g fill="#ffffff" fill-opacity="1"><g transform="translate(83.086234, 252.456413)"><g><path d="M 0.734375 0 L 0.734375 -2.375 L 3.265625 -2.375 L 3.265625 0 Z M 0.734375 0 "/></g></g></g><g fill="#ffffff" fill-opacity="1"><g transform="translate(87.058844, 252.456413)"><g/></g></g><g fill="#ffffff" fill-opacity="1"><g transform="translate(91.031455, 252.456413)"><g><path d="M 2.703125 -6.046875 L 2.703125 -3.953125 L 0.484375 -3.953125 L 0.484375 -5.921875 L 1.578125 -8.21875 L 2.703125 -8.21875 L 1.859375 -6.046875 Z M 5.4375 -6.046875 L 5.4375 -3.953125 L 3.21875 -3.953125 L 3.21875 -5.921875 L 4.3125 -8.21875 L 5.4375 -8.21875 L 4.59375 -6.046875 Z M 5.4375 -6.046875 "/></g></g></g><g fill="#ffffff" fill-opacity="1"><g transform="translate(96.996332, 252.456413)"><g><path d="M 1 0 L 1 -8.21875 L 3.640625 -8.21875 L 3.640625 0 Z M 1 0 "/></g></g></g><g fill="#ffffff" fill-opacity="1"><g transform="translate(101.637003, 252.456413)"><g/></g></g><g fill="#ffffff" fill-opacity="1"><g transform="translate(105.609613, 252.456413)"><g><path d="M 6.390625 0 L 6.046875 -1.15625 L 3.15625 -1.15625 L 2.8125 0 L 0.125 0 L 3.109375 -8.21875 L 6.1875 -8.21875 L 9.1875 0 Z M 3.71875 -3 L 5.484375 -3 L 4.625 -5.921875 L 4.578125 -5.921875 Z M 3.71875 -3 "/></g></g></g><g fill="#ffffff" fill-opacity="1"><g transform="translate(114.890954, 252.456413)"><g><path d="M 7.9375 0 L 7.9375 -2.953125 C 7.9375 -3.328125 7.945312 -3.707031 7.96875 -4.09375 C 8 -4.476562 8.03125 -4.800781 8.0625 -5.0625 C 8.101562 -5.320312 8.125 -5.488281 8.125 -5.5625 L 8.078125 -5.5625 L 6.5625 0 L 4.5 0 L 2.96875 -5.546875 L 2.921875 -5.546875 C 2.929688 -5.472656 2.953125 -5.304688 2.984375 -5.046875 C 3.023438 -4.796875 3.0625 -4.476562 3.09375 -4.09375 C 3.125 -3.707031 3.140625 -3.328125 3.140625 -2.953125 L 3.140625 0 L 0.71875 0 L 0.71875 -8.21875 L 4.4375 -8.21875 L 5.6875 -3.46875 L 5.734375 -3.46875 L 6.953125 -8.21875 L 10.546875 -8.21875 L 10.546875 0 Z M 7.9375 0 "/></g></g></g><g fill="#ffffff" fill-opacity="1"><g transform="translate(126.152638, 252.456413)"><g/></g></g><g fill="#ffffff" fill-opacity="1"><g transform="translate(130.125248, 252.456413)"><g><path d="M 5.609375 -6.109375 L 5.609375 0 L 2.96875 0 L 2.96875 -6.109375 L 0.28125 -6.109375 L 0.28125 -8.21875 L 8.296875 -8.21875 L 8.296875 -6.109375 Z M 5.609375 -6.109375 "/></g></g></g><g fill="#ffffff" fill-opacity="1"><g transform="translate(138.738529, 252.456413)"><g><path d="M 6.421875 0 L 6.421875 -3.109375 L 3.515625 -3.109375 L 3.515625 0 L 0.890625 0 L 0.890625 -8.21875 L 3.515625 -8.21875 L 3.515625 -5.21875 L 6.421875 -5.21875 L 6.421875 -8.21875 L 9.0625 -8.21875 L 9.0625 0 Z M 6.421875 0 "/></g></g></g><g fill="#ffffff" fill-opacity="1"><g transform="translate(148.676005, 252.456413)"><g><path d="M 0.890625 -8.21875 L 7.984375 -8.21875 L 7.984375 -6.25 L 3.515625 -6.25 L 3.515625 -5.109375 L 7.34375 -5.109375 L 7.34375 -3.21875 L 3.515625 -3.21875 L 3.515625 -1.96875 L 8.0625 -1.96875 L 8.0625 0 L 0.890625 0 Z M 0.890625 -8.21875 "/></g></g></g><g fill="#ffffff" fill-opacity="1"><g transform="translate(157.289286, 252.456413)"><g/></g></g><g fill="#ffffff" fill-opacity="1"><g transform="translate(161.261896, 252.456413)"><g><path d="M 3.109375 0 L 0.203125 -8.21875 L 3.015625 -8.21875 L 4.671875 -2.71875 L 4.71875 -2.71875 L 6.375 -8.21875 L 9.078125 -8.21875 L 6.171875 0 Z M 3.109375 0 "/></g></g></g><g fill="#ffffff" fill-opacity="1"><g transform="translate(170.543237, 252.456413)"><g><path d="M 1 0 L 1 -8.21875 L 3.640625 -8.21875 L 3.640625 0 Z M 1 0 "/></g></g></g><g fill="#ffffff" fill-opacity="1"><g transform="translate(175.183907, 252.456413)"><g><path d="M 6.75 0 L 3.3125 -3.984375 L 3.3125 0 L 0.890625 0 L 0.890625 -8.21875 L 3.1875 -8.21875 L 6.640625 -4.171875 L 6.640625 -8.21875 L 9.0625 -8.21875 L 9.0625 0 Z M 6.75 0 "/></g></g></g><g fill="#ffffff" fill-opacity="1"><g transform="translate(185.121384, 252.456413)"><g><path d="M 0.890625 -8.21875 L 7.984375 -8.21875 L 7.984375 -6.25 L 3.515625 -6.25 L 3.515625 -5.109375 L 7.34375 -5.109375 L 7.34375 -3.21875 L 3.515625 -3.21875 L 3.515625 -1.96875 L 8.0625 -1.96875 L 8.0625 0 L 0.890625 0 Z M 0.890625 -8.21875 "/></g></g></g><g fill="#ffffff" fill-opacity="1"><g transform="translate(193.734665, 252.456413)"><g><path d="M 0.734375 -3.921875 L 0.734375 -6.296875 L 3.265625 -6.296875 L 3.265625 -3.921875 Z M 2 2.1875 L 0.71875 2.1875 L 1.6875 0 L 0.734375 0 L 0.734375 -2.375 L 3.265625 -2.375 L 3.265625 -0.125 Z M 2 2.1875 "/></g></g></g><g fill="#ffffff" fill-opacity="1"><g transform="translate(197.707275, 252.456413)"><g/></g></g><g fill="#ffffff" fill-opacity="1"><g transform="translate(201.679885, 252.456413)"><g><path d="M 5.984375 0 L 3.34375 0 L 3.34375 -3.1875 L 0.078125 -8.21875 L 3.109375 -8.21875 L 4.6875 -5.484375 L 4.734375 -5.484375 L 6.3125 -8.21875 L 9.1875 -8.21875 L 5.984375 -3.1875 Z M 5.984375 0 "/></g></g></g><g fill="#ffffff" fill-opacity="1"><g transform="translate(210.961226, 252.456413)"><g><path d="M 4.96875 -8.359375 C 6.382812 -8.359375 7.476562 -7.992188 8.25 -7.265625 C 9.019531 -6.546875 9.40625 -5.492188 9.40625 -4.109375 C 9.40625 -2.722656 9.019531 -1.664062 8.25 -0.9375 C 7.476562 -0.21875 6.382812 0.140625 4.96875 0.140625 C 3.550781 0.140625 2.457031 -0.21875 1.6875 -0.9375 C 0.914062 -1.65625 0.53125 -2.710938 0.53125 -4.109375 C 0.53125 -5.503906 0.914062 -6.5625 1.6875 -7.28125 C 2.457031 -8 3.550781 -8.359375 4.96875 -8.359375 Z M 4.96875 -6.390625 C 4.40625 -6.390625 3.972656 -6.21875 3.671875 -5.875 C 3.378906 -5.53125 3.234375 -5.066406 3.234375 -4.484375 L 3.234375 -3.71875 C 3.234375 -3.144531 3.378906 -2.6875 3.671875 -2.34375 C 3.972656 -2 4.40625 -1.828125 4.96875 -1.828125 C 5.53125 -1.828125 5.957031 -2 6.25 -2.34375 C 6.550781 -2.6875 6.703125 -3.144531 6.703125 -3.71875 L 6.703125 -4.484375 C 6.703125 -5.066406 6.550781 -5.53125 6.25 -5.875 C 5.957031 -6.21875 5.53125 -6.390625 4.96875 -6.390625 Z M 4.96875 -6.390625 "/></g></g></g><g fill="#ffffff" fill-opacity="1"><g transform="translate(220.898703, 252.456413)"><g><path d="M 9.0625 -3.3125 C 9.0625 -2.1875 8.707031 -1.328125 8 -0.734375 C 7.289062 -0.148438 6.285156 0.140625 4.984375 0.140625 C 3.671875 0.140625 2.660156 -0.148438 1.953125 -0.734375 C 1.242188 -1.328125 0.890625 -2.1875 0.890625 -3.3125 L 0.890625 -8.21875 L 3.515625 -8.21875 L 3.515625 -3.34375 C 3.515625 -2.882812 3.640625 -2.515625 3.890625 -2.234375 C 4.140625 -1.960938 4.5 -1.828125 4.96875 -1.828125 C 5.4375 -1.828125 5.796875 -1.960938 6.046875 -2.234375 C 6.296875 -2.515625 6.421875 -2.882812 6.421875 -3.34375 L 6.421875 -8.21875 L 9.0625 -8.21875 Z M 9.0625 -3.3125 "/></g></g></g><g fill="#ffffff" fill-opacity="1"><g transform="translate(230.836179, 252.456413)"><g/></g></g><g fill="#ffffff" fill-opacity="1"><g transform="translate(234.808789, 252.456413)"><g><path d="M 6.390625 0 L 6.046875 -1.15625 L 3.15625 -1.15625 L 2.8125 0 L 0.125 0 L 3.109375 -8.21875 L 6.1875 -8.21875 L 9.1875 0 Z M 3.71875 -3 L 5.484375 -3 L 4.625 -5.921875 L 4.578125 -5.921875 Z M 3.71875 -3 "/></g></g></g><g fill="#ffffff" fill-opacity="1"><g transform="translate(244.09013, 252.456413)"><g><path d="M 8.671875 -5.6875 C 8.671875 -5.1875 8.535156 -4.734375 8.265625 -4.328125 C 7.992188 -3.921875 7.601562 -3.625 7.09375 -3.4375 L 8.921875 0 L 5.953125 0 L 4.5 -3 L 3.515625 -3 L 3.515625 0 L 0.890625 0 L 0.890625 -8.21875 L 5.90625 -8.21875 C 6.5 -8.21875 7.003906 -8.101562 7.421875 -7.875 C 7.835938 -7.644531 8.148438 -7.335938 8.359375 -6.953125 C 8.566406 -6.566406 8.671875 -6.144531 8.671875 -5.6875 Z M 6 -5.59375 C 6 -5.800781 5.925781 -5.976562 5.78125 -6.125 C 5.632812 -6.269531 5.457031 -6.34375 5.25 -6.34375 L 3.515625 -6.34375 L 3.515625 -4.828125 L 5.25 -4.828125 C 5.457031 -4.828125 5.632812 -4.898438 5.78125 -5.046875 C 5.925781 -5.191406 6 -5.375 6 -5.59375 Z M 6 -5.59375 "/></g></g></g><g fill="#ffffff" fill-opacity="1"><g transform="translate(253.371471, 252.456413)"><g><path d="M 0.890625 -8.21875 L 7.984375 -8.21875 L 7.984375 -6.25 L 3.515625 -6.25 L 3.515625 -5.109375 L 7.34375 -5.109375 L 7.34375 -3.21875 L 3.515625 -3.21875 L 3.515625 -1.96875 L 8.0625 -1.96875 L 8.0625 0 L 0.890625 0 Z M 0.890625 -8.21875 "/></g></g></g><g fill="#ffffff" fill-opacity="1"><g transform="translate(261.984752, 252.456413)"><g/></g></g><g fill="#ffffff" fill-opacity="1"><g transform="translate(265.957362, 252.456413)"><g><path d="M 5.609375 -6.109375 L 5.609375 0 L 2.96875 0 L 2.96875 -6.109375 L 0.28125 -6.109375 L 0.28125 -8.21875 L 8.296875 -8.21875 L 8.296875 -6.109375 Z M 5.609375 -6.109375 "/></g></g></g><g fill="#ffffff" fill-opacity="1"><g transform="translate(274.570643, 252.456413)"><g><path d="M 6.421875 0 L 6.421875 -3.109375 L 3.515625 -3.109375 L 3.515625 0 L 0.890625 0 L 0.890625 -8.21875 L 3.515625 -8.21875 L 3.515625 -5.21875 L 6.421875 -5.21875 L 6.421875 -8.21875 L 9.0625 -8.21875 L 9.0625 0 Z M 6.421875 0 "/></g></g></g><g fill="#ffffff" fill-opacity="1"><g transform="translate(284.508119, 252.456413)"><g><path d="M 0.890625 -8.21875 L 7.984375 -8.21875 L 7.984375 -6.25 L 3.515625 -6.25 L 3.515625 -5.109375 L 7.34375 -5.109375 L 7.34375 -3.21875 L 3.515625 -3.21875 L 3.515625 -1.96875 L 8.0625 -1.96875 L 8.0625 0 L 0.890625 0 Z M 0.890625 -8.21875 "/></g></g></g><g fill="#ffffff" fill-opacity="1"><g transform="translate(293.1214, 252.456413)"><g/></g></g><g fill="#ffffff" fill-opacity="1"><g transform="translate(297.09401, 252.456413)"><g><path d="M 6.34375 -8.21875 C 6.757812 -8.21875 7.140625 -8.128906 7.484375 -7.953125 C 7.835938 -7.785156 8.113281 -7.546875 8.3125 -7.234375 C 8.519531 -6.921875 8.625 -6.578125 8.625 -6.203125 C 8.625 -5.179688 8.164062 -4.539062 7.25 -4.28125 L 7.25 -4.234375 C 8.289062 -3.992188 8.8125 -3.3125 8.8125 -2.1875 C 8.8125 -1.757812 8.703125 -1.378906 8.484375 -1.046875 C 8.273438 -0.710938 7.988281 -0.453125 7.625 -0.265625 C 7.257812 -0.0859375 6.859375 0 6.421875 0 L 0.890625 0 L 0.890625 -8.21875 Z M 3.515625 -5.015625 L 5.34375 -5.015625 C 5.507812 -5.015625 5.648438 -5.078125 5.765625 -5.203125 C 5.878906 -5.328125 5.9375 -5.476562 5.9375 -5.65625 L 5.9375 -5.78125 C 5.9375 -5.957031 5.878906 -6.101562 5.765625 -6.21875 C 5.648438 -6.34375 5.507812 -6.40625 5.34375 -6.40625 L 3.515625 -6.40625 Z M 3.515625 -1.90625 L 5.53125 -1.90625 C 5.707031 -1.90625 5.851562 -1.96875 5.96875 -2.09375 C 6.082031 -2.21875 6.140625 -2.367188 6.140625 -2.546875 L 6.140625 -2.671875 C 6.140625 -2.859375 6.082031 -3.007812 5.96875 -3.125 C 5.851562 -3.25 5.707031 -3.3125 5.53125 -3.3125 L 3.515625 -3.3125 Z M 3.515625 -1.90625 "/></g></g></g><g fill="#ffffff" fill-opacity="1"><g transform="translate(306.375351, 252.456413)"><g><path d="M 8.671875 -5.6875 C 8.671875 -5.1875 8.535156 -4.734375 8.265625 -4.328125 C 7.992188 -3.921875 7.601562 -3.625 7.09375 -3.4375 L 8.921875 0 L 5.953125 0 L 4.5 -3 L 3.515625 -3 L 3.515625 0 L 0.890625 0 L 0.890625 -8.21875 L 5.90625 -8.21875 C 6.5 -8.21875 7.003906 -8.101562 7.421875 -7.875 C 7.835938 -7.644531 8.148438 -7.335938 8.359375 -6.953125 C 8.566406 -6.566406 8.671875 -6.144531 8.671875 -5.6875 Z M 6 -5.59375 C 6 -5.800781 5.925781 -5.976562 5.78125 -6.125 C 5.632812 -6.269531 5.457031 -6.34375 5.25 -6.34375 L 3.515625 -6.34375 L 3.515625 -4.828125 L 5.25 -4.828125 C 5.457031 -4.828125 5.632812 -4.898438 5.78125 -5.046875 C 5.925781 -5.191406 6 -5.375 6 -5.59375 Z M 6 -5.59375 "/></g></g></g><g fill="#ffffff" fill-opacity="1"><g transform="translate(315.656692, 252.456413)"><g><path d="M 6.390625 0 L 6.046875 -1.15625 L 3.15625 -1.15625 L 2.8125 0 L 0.125 0 L 3.109375 -8.21875 L 6.1875 -8.21875 L 9.1875 0 Z M 3.71875 -3 L 5.484375 -3 L 4.625 -5.921875 L 4.578125 -5.921875 Z M 3.71875 -3 "/></g></g></g><g fill="#ffffff" fill-opacity="1"><g transform="translate(324.938033, 252.456413)"><g><path d="M 6.75 0 L 3.3125 -3.984375 L 3.3125 0 L 0.890625 0 L 0.890625 -8.21875 L 3.1875 -8.21875 L 6.640625 -4.171875 L 6.640625 -8.21875 L 9.0625 -8.21875 L 9.0625 0 Z M 6.75 0 "/></g></g></g><g fill="#ffffff" fill-opacity="1"><g transform="translate(334.87551, 252.456413)"><g><path d="M 4.796875 -8.359375 C 6.015625 -8.359375 6.976562 -8.050781 7.6875 -7.4375 C 8.394531 -6.832031 8.75 -5.960938 8.75 -4.828125 L 6.234375 -4.828125 C 6.234375 -5.304688 6.109375 -5.6875 5.859375 -5.96875 C 5.609375 -6.25 5.25 -6.390625 4.78125 -6.390625 C 4.25 -6.390625 3.859375 -6.222656 3.609375 -5.890625 C 3.359375 -5.554688 3.234375 -5.085938 3.234375 -4.484375 L 3.234375 -3.71875 C 3.234375 -3.132812 3.359375 -2.671875 3.609375 -2.328125 C 3.859375 -1.992188 4.242188 -1.828125 4.765625 -1.828125 C 5.273438 -1.828125 5.660156 -1.957031 5.921875 -2.21875 C 6.179688 -2.476562 6.3125 -2.847656 6.3125 -3.328125 L 8.75 -3.328125 C 8.75 -2.203125 8.40625 -1.34375 7.71875 -0.75 C 7.03125 -0.15625 6.054688 0.140625 4.796875 0.140625 C 3.398438 0.140625 2.335938 -0.210938 1.609375 -0.921875 C 0.890625 -1.640625 0.53125 -2.703125 0.53125 -4.109375 C 0.53125 -5.503906 0.890625 -6.5625 1.609375 -7.28125 C 2.335938 -8 3.398438 -8.359375 4.796875 -8.359375 Z M 4.796875 -8.359375 "/></g></g></g><g fill="#ffffff" fill-opacity="1"><g transform="translate(344.156851, 252.456413)"><g><path d="M 6.421875 0 L 6.421875 -3.109375 L 3.515625 -3.109375 L 3.515625 0 L 0.890625 0 L 0.890625 -8.21875 L 3.515625 -8.21875 L 3.515625 -5.21875 L 6.421875 -5.21875 L 6.421875 -8.21875 L 9.0625 -8.21875 L 9.0625 0 Z M 6.421875 0 "/></g></g></g><g fill="#ffffff" fill-opacity="1"><g transform="translate(354.094327, 252.456413)"><g><path d="M 0.890625 -8.21875 L 7.984375 -8.21875 L 7.984375 -6.25 L 3.515625 -6.25 L 3.515625 -5.109375 L 7.34375 -5.109375 L 7.34375 -3.21875 L 3.515625 -3.21875 L 3.515625 -1.96875 L 8.0625 -1.96875 L 8.0625 0 L 0.890625 0 Z M 0.890625 -8.21875 "/></g></g></g><g fill="#ffffff" fill-opacity="1"><g transform="translate(362.707608, 252.456413)"><g><path d="M 4.328125 -8.359375 C 5.378906 -8.359375 6.242188 -8.144531 6.921875 -7.71875 C 7.597656 -7.289062 7.945312 -6.660156 7.96875 -5.828125 L 7.96875 -5.6875 L 5.484375 -5.6875 L 5.484375 -5.734375 C 5.484375 -5.972656 5.394531 -6.171875 5.21875 -6.328125 C 5.050781 -6.484375 4.785156 -6.5625 4.421875 -6.5625 C 4.078125 -6.5625 3.8125 -6.507812 3.625 -6.40625 C 3.4375 -6.300781 3.34375 -6.175781 3.34375 -6.03125 C 3.34375 -5.8125 3.46875 -5.648438 3.71875 -5.546875 C 3.976562 -5.441406 4.390625 -5.335938 4.953125 -5.234375 C 5.609375 -5.097656 6.148438 -4.953125 6.578125 -4.796875 C 7.003906 -4.648438 7.375 -4.410156 7.6875 -4.078125 C 8.007812 -3.742188 8.175781 -3.289062 8.1875 -2.71875 C 8.1875 -1.75 7.859375 -1.03125 7.203125 -0.5625 C 6.546875 -0.09375 5.671875 0.140625 4.578125 0.140625 C 3.296875 0.140625 2.296875 -0.0703125 1.578125 -0.5 C 0.867188 -0.925781 0.515625 -1.6875 0.515625 -2.78125 L 3.015625 -2.78125 C 3.015625 -2.363281 3.117188 -2.085938 3.328125 -1.953125 C 3.546875 -1.816406 3.878906 -1.75 4.328125 -1.75 C 4.660156 -1.75 4.9375 -1.78125 5.15625 -1.84375 C 5.375 -1.914062 5.484375 -2.066406 5.484375 -2.296875 C 5.484375 -2.492188 5.363281 -2.640625 5.125 -2.734375 C 4.882812 -2.835938 4.488281 -2.945312 3.9375 -3.0625 C 3.269531 -3.195312 2.71875 -3.34375 2.28125 -3.5 C 1.84375 -3.65625 1.457031 -3.910156 1.125 -4.265625 C 0.800781 -4.628906 0.640625 -5.117188 0.640625 -5.734375 C 0.640625 -6.628906 0.988281 -7.289062 1.6875 -7.71875 C 2.382812 -8.144531 3.265625 -8.359375 4.328125 -8.359375 Z M 4.328125 -8.359375 "/></g></g></g><g fill="#ffffff" fill-opacity="1"><g transform="translate(371.320888, 252.456413)"><g><path d="M 0.734375 0 L 0.734375 -2.375 L 3.265625 -2.375 L 3.265625 0 Z M 0.734375 0 "/></g></g></g><path stroke-linecap="round" transform="matrix(0, 0.75, -0.75, 0, 240.181923, 151.725986)" fill="none" stroke-linejoin="miter" d="M 10.000769 9.997773 L 55.917439 9.997773 " stroke="#ffffff" stroke-width="20" stroke-opacity="1" stroke-miterlimit="4"/><path stroke-linecap="round" transform="matrix(0, -0.75, 0.75, 0, 156.830149, 224.265528)" fill="none" stroke-linejoin="miter" d="M 9.999871 10.00251 L 109.494669 10.00251 " stroke="#ffffff" stroke-width="20" stroke-opacity="1" stroke-miterlimit="4"/><path stroke-linecap="round" transform="matrix(0, -0.75, 0.75, 0, 127.685168, 200.642125)" fill="none" stroke-linejoin="miter" d="M 10.002001 9.997902 L 55.918671 9.997902 " stroke="#ffffff" stroke-width="20" stroke-opacity="1" stroke-miterlimit="4"/><path stroke-linecap="round" transform="matrix(-0.75, 0, 0, -0.75, 232.302558, 112.981392)" fill="none" stroke-linejoin="miter" d="M 10.00237 10.001231 L 109.497168 10.001231 " stroke="#ffffff" stroke-width="20" stroke-opacity="1" stroke-miterlimit="4"/></svg>