<svg xmlns="http://www.w3.org/2000/svg" xmlns:xlink="http://www.w3.org/1999/xlink" width="500" zoomAndPan="magnify" viewBox="0 0 375 374.999991" height="500" preserveAspectRatio="xMidYMid meet" version="1.0"><defs><g/></defs><rect x="-37.5" width="450" fill="#ffffff" y="-37.499999" height="449.999989" fill-opacity="1"/><rect x="-37.5" width="450" fill="#000000" y="-37.499999" height="449.999989" fill-opacity="1"/><g fill="#ffffff" fill-opacity="1"><g transform="translate(123.417316, 225.445298)"><g><path d="M 4.84375 0 L 11.609375 0 L 11.609375 -37.640625 L 4.84375 -37.640625 Z M 4.84375 0 "/></g></g></g><g fill="#ffffff" fill-opacity="1"><g transform="translate(139.881975, 225.445298)"><g><path d="M 4.84375 0 L 11.34375 0 L 11.34375 -26.40625 L 27.125 0 L 33.890625 0 L 33.890625 -37.640625 L 27.390625 -37.640625 L 27.390625 -11.296875 L 11.5625 -37.640625 L 4.84375 -37.640625 Z M 4.84375 0 "/></g></g></g><g fill="#ffffff" fill-opacity="1"><g transform="translate(178.619216, 225.445298)"><g><path d="M 15.609375 0.421875 C 22.8125 0.421875 28.6875 -3.859375 28.6875 -10.96875 C 28.6875 -23.46875 10.46875 -21.078125 10.46875 -28.15625 C 10.46875 -30.5625 12.546875 -32.1875 15.21875 -32.1875 C 17.75 -32.1875 19.984375 -30.71875 21.28125 -28.15625 L 26.90625 -31.59375 C 24.328125 -36.171875 20.09375 -38.203125 15.453125 -38.203125 C 9.109375 -38.203125 3.703125 -34.46875 3.703125 -27.8125 C 3.703125 -15.5625 21.921875 -18.171875 21.921875 -10.359375 C 21.921875 -7.703125 19.734375 -5.5625 15.71875 -5.5625 C 11.71875 -5.5625 8.390625 -7.640625 7.90625 -12.328125 L 1.203125 -10.625 C 2.390625 -3.21875 8.953125 0.421875 15.609375 0.421875 Z M 15.609375 0.421875 "/></g></g></g><g fill="#ffffff" fill-opacity="1"><g transform="translate(208.910993, 225.445298)"><g><path d="M 4.84375 0 L 11.5625 0 L 11.5625 -15.609375 L 16.65625 -15.609375 C 24.328125 -15.609375 29.953125 -19.46875 29.953125 -26.515625 C 29.953125 -33.625 24.328125 -37.640625 16.65625 -37.640625 L 4.84375 -37.640625 Z M 11.5625 -21.921875 L 11.5625 -31.328125 L 16.65625 -31.328125 C 21.234375 -31.328125 23.234375 -29.578125 23.234375 -26.515625 C 23.234375 -23.53125 21.28125 -21.921875 16.65625 -21.921875 Z M 11.5625 -21.921875 "/></g></g></g><g fill="#ffffff" fill-opacity="1"><g transform="translate(240.002025, 225.445298)"><g><path d="M 20.359375 0.53125 C 32.796875 0.53125 38.53125 -8.578125 38.53125 -18.828125 C 38.53125 -29.09375 32.796875 -38.203125 20.359375 -38.203125 C 7.90625 -38.203125 2.1875 -29.09375 2.1875 -18.828125 C 2.1875 -8.578125 7.90625 0.53125 20.359375 0.53125 Z M 20.359375 -5.46875 C 12.28125 -5.46875 9.328125 -11.71875 9.328125 -18.828125 C 9.328125 -25.921875 12.28125 -32.1875 20.359375 -32.1875 C 28.421875 -32.1875 31.390625 -25.921875 31.390625 -18.828125 C 31.390625 -11.71875 28.421875 -5.46875 20.359375 -5.46875 Z M 20.359375 -5.46875 "/></g></g></g><g fill="#ffffff" fill-opacity="1"><g transform="translate(280.710762, 225.445298)"><g><path d="M 4.84375 0 L 19.53125 0 C 25.921875 0 31.8125 -3.921875 31.8125 -10.921875 C 31.8125 -14.671875 29.203125 -18.78125 25.765625 -20.140625 C 27.890625 -21.28125 29.953125 -24.0625 29.953125 -27.5 C 29.953125 -35.03125 23.625 -37.640625 17.90625 -37.640625 L 4.84375 -37.640625 Z M 11.609375 -22.484375 L 11.609375 -31.546875 L 18.015625 -31.546875 C 21.234375 -31.546875 23.734375 -30.046875 23.734375 -27.125 C 23.734375 -23.421875 21.1875 -22.484375 18.546875 -22.484375 Z M 11.609375 -6.453125 L 11.609375 -16.65625 L 19.375 -16.65625 C 22.90625 -16.65625 25.15625 -14.359375 25.15625 -11.671875 C 25.15625 -8.125 23.125 -6.453125 19.640625 -6.453125 Z M 11.609375 -6.453125 "/></g></g></g><path stroke-linecap="round" transform="matrix(0.00235168, 0.53792, -0.53792, 0.00235168, 90.468515, 125.419269)" fill="none" stroke-linejoin="miter" d="M 9.996888 9.999144 L 218.743536 9.996759 " stroke="#ffffff" stroke-width="20" stroke-opacity="1" stroke-miterlimit="4"/><path stroke-linecap="round" transform="matrix(0, 0.537926, -0.537926, 0, 107.082777, 170.192334)" fill="none" stroke-linejoin="miter" d="M 9.997628 10.000739 L 109.497349 10.000739 " stroke="#ffffff" stroke-width="20" stroke-opacity="1" stroke-miterlimit="4"/><path stroke-linecap="round" transform="matrix(0, 0.537926, -0.537926, 0, 123.414371, 183.450223)" fill="none" stroke-linejoin="miter" d="M 9.997484 9.999925 L 55.920433 9.999925 " stroke="#ffffff" stroke-width="20" stroke-opacity="1" stroke-miterlimit="4"/><path stroke-linecap="round" transform="matrix(0, -0.537926, 0.537926, 0, 63.631649, 235.47807)" fill="none" stroke-linejoin="miter" d="M 10.002154 10.001514 L 109.494614 10.001514 " stroke="#ffffff" stroke-width="20" stroke-opacity="1" stroke-miterlimit="4"/><path stroke-linecap="round" transform="matrix(0, -0.537926, 0.537926, 0, 47.300027, 222.220181)" fill="none" stroke-linejoin="miter" d="M 10.002011 10.000754 L 55.917698 10.000754 " stroke="#ffffff" stroke-width="20" stroke-opacity="1" stroke-miterlimit="4"/><path stroke-linecap="round" transform="matrix(-0.537926, 0, 0, -0.537926, 117.763019, 155.661319)" fill="none" stroke-linejoin="miter" d="M 10.001769 10.001512 L 109.494229 10.001512 " stroke="#ffffff" stroke-width="20" stroke-opacity="1" stroke-miterlimit="4"/></svg>